<svg width="21" height="17" viewBox="0 0 21 17" fill="none" xmlns="http://www.w3.org/2000/svg">
    <path
        d="M18.3772 0.688919C17.8658 0.666513 17.3444 0.819352 16.9146 1.13681L15.7613 1.98829L10.5006 5.8774L5.28916 2.02521C5.21653 1.95424 5.12066 1.91199 5.01928 1.90626H5.12428L4.08904 1.14009C3.65898 0.821846 3.13681 0.668148 2.62479 0.690559C2.11276 0.712971 1.61128 0.91115 1.22205 1.29513C0.727604 1.78261 0.420607 2.46446 0.420607 3.2122V4.65431C0.414485 4.69537 0.414485 4.73711 0.420607 4.77818V14.5899C0.420607 15.3968 1.08371 16.0599 1.89061 16.0599H5.04061C5.15199 16.0599 5.25882 16.0157 5.33758 15.9369C5.41634 15.8581 5.4606 15.7513 5.46061 15.6399V8.65661L10.2512 12.1979C10.3235 12.2512 10.4109 12.2799 10.5006 12.2799C10.5904 12.2799 10.6778 12.2512 10.75 12.1979L15.5406 8.65661V15.6399C15.5406 15.7513 15.5849 15.8581 15.6636 15.9369C15.7424 16.0157 15.8492 16.0599 15.9606 16.0599H19.1106C19.9175 16.0599 20.5806 15.3968 20.5806 14.5899V4.76997C20.5854 4.73376 20.5854 4.69708 20.5806 4.66087V3.2122C20.5806 2.47365 20.2826 1.79496 19.7947 1.30661C19.7806 1.29251 19.7759 1.28861 19.7816 1.29431C19.7808 1.29349 19.78 1.29267 19.7792 1.29185C19.39 0.908718 18.8887 0.711324 18.3772 0.688919ZM18.3313 1.5281C18.649 1.54055 18.9569 1.66103 19.1902 1.89068C19.1981 1.89852 19.2039 1.90444 19.2 1.90052C19.5345 2.23537 19.7406 2.69915 19.7406 3.2122V4.50829L16.3806 6.99138V2.61993C16.3808 2.6057 16.3802 2.59146 16.379 2.57728L17.4134 1.81275H17.4142C17.6866 1.6115 18.0137 1.51564 18.3313 1.5281ZM2.67072 1.53056C2.98873 1.51811 3.31688 1.61349 3.58947 1.81521L4.62225 2.57892C4.62103 2.59256 4.62048 2.60624 4.62061 2.61993V6.99138L1.26061 4.50829V3.2122C1.26061 2.69322 1.47134 2.22885 1.81186 1.89314C2.04506 1.66308 2.35272 1.54301 2.67072 1.53056ZM15.5406 3.19579V7.61236L10.5006 11.3374L5.46061 7.61236V3.19661L10.2512 6.7379C10.3235 6.79119 10.4109 6.81994 10.5006 6.81994C10.5904 6.81994 10.6778 6.79119 10.75 6.7379L15.5406 3.19579ZM1.26061 5.55255L4.62061 8.03646V15.2199H1.89061C1.53747 15.2199 1.26061 14.9431 1.26061 14.5899V5.55255ZM19.7406 5.55255V14.5899C19.7406 14.9431 19.4637 15.2199 19.1106 15.2199H16.3806V8.03646L19.7406 5.55255Z"
        fill="currentColor" />
</svg>